<svg xmlns="http://www.w3.org/2000/svg" width="24" height="24" viewBox="0 0 24 24" fill="none" stroke="currentColor" stroke-width="1.5" stroke-linecap="round" stroke-linejoin="round">
  <path d="M23 3a10.9 10.9 0 0 1-3.14 1.53A4.48 4.48 0 0 0 22.43.36a9 9 0 0 1-2.86 1.09A4.48 4.48 0 0 0 16.11 0c-2.5 0-4.51 2.17-3.96 4.6A12.94 12.94 0 0 1 1.64 1.15 4.48 4.48 0 0 0 2.9 6.8 4.41 4.41 0 0 1 .89 6v.06A4.48 4.48 0 0 0 4.48 10a4.52 4.52 0 0 1-2 .08 4.48 4.48 0 0 0 4.19 3.12A9 9 0 0 1 1 18.57 12.72 12.72 0 0 0 7.29 20c8.9 0 13.76-7.45 13.1-14.07A9.7 9.7 0 0 0 23 3z" />
</svg>